<?xml version="1.0" encoding="UTF-8" standalone="no"?>
<!-- Created with Inkscape (http://www.inkscape.org/) -->

<svg
   width="160mm"
   height="160.00002mm"
   viewBox="0 0 160 160.00002"
   version="1.1"
   id="svg1"
   xml:space="preserve"
   xmlns="http://www.w3.org/2000/svg"
   xmlns:svg="http://www.w3.org/2000/svg"><defs
     id="defs1" /><g
     id="g1"
     style="fill:#0078d4;fill-opacity:1"
     transform="translate(-10.775876,-78.897318)"><path
       style="opacity:0.8;fill:#0078d4;fill-opacity:1;stroke-width:1.11163"
       d="m 46.803023,227.193 c -1.814374,-0.62741 -3.357889,-1.77754 -4.396136,-3.27574 -1.580977,-2.28134 -1.631011,-2.81115 -1.631011,-17.27189 v -13.33561 h 4.70589 4.705878 v 12.5 12.5 h 3.661684 3.661683 l 0.107639,-23.16177 c 0.09444,-20.3226 0.167581,-23.41413 0.596598,-25.22059 0.777991,-3.27585 1.65088,-5.80458 2.857798,-8.27894 l 1.122211,-2.30068 -2.318249,-2.1537 c -4.551989,-4.22888 -8.0422,-9.94014 -9.428496,-15.42845 l -0.650051,-2.57352 H 45.434222 41.06999 v -4.70589 -4.70588 h 4.352827 4.352834 l 0.801063,-2.86765 c 1.418488,-5.07791 4.048695,-9.60838 7.923341,-13.64779 l 1.594682,-1.66249 0.186467,-3.04339 c 0.390764,-6.37782 2.462607,-11.323762 6.673515,-15.931166 1.697712,-1.857568 3.509539,-2.728661 5.128892,-2.465875 2.940973,0.477253 8.832343,5.378782 10.77804,8.967163 l 1.00246,1.848798 1.470589,-0.23115 c 1.915552,-0.3011 9.828059,-0.29802 11.937633,0.005 l 1.643516,0.23579 1.122231,-1.918928 c 1.52935,-2.615064 3.67555,-4.952141 6.40864,-6.978605 4.01861,-2.979616 5.45799,-2.759654 9.62327,1.470601 4.52525,4.595825 6.6119,9.318532 6.97163,15.778862 l 0.18015,3.2353 1.57321,1.85738 c 3.47709,4.10516 5.79511,8.39119 6.94601,12.84324 l 0.64764,2.50526 h 4.19363 4.19362 v 4.70588 4.70589 h -4.19386 -4.19384 l -0.51588,2.27941 c -1.30336,5.75891 -5.06993,11.80879 -10.24073,16.4487 l -1.64432,1.47549 0.99123,1.9662 c 0.54517,1.0814 1.38655,3.14616 1.86973,4.58835 1.69886,5.07078 1.74756,5.98933 1.74946,33.00211 0.001,16.64502 -0.0993,24.88126 -0.31042,25.44118 -0.46426,1.2314 -2.02162,2.70656 -3.2042,3.03509 -0.65869,0.18298 -14.25266,0.28667 -36.924821,0.28164 -33.253433,-0.008 -35.990263,-0.0452 -37.355218,-0.51727 z m 29.266975,-18.58913 v -9.70588 h 4.705883 4.705882 v 9.70588 9.70589 h 5.294117 5.294119 v -9.70589 -9.70588 h 4.705881 4.70588 v 9.70588 9.70589 h 4.86481 4.8648 l -0.0963,-22.86765 c -0.0889,-21.11391 -0.13764,-23.01427 -0.6358,-24.77942 -0.56693,-2.00884 -2.36431,-6.17647 -2.66372,-6.17647 -0.0963,0 -0.9321,0.31773 -1.85737,0.70604 -6.39257,2.68285 -13.479517,3.91578 -20.799976,3.61863 -6.073761,-0.24656 -11.220903,-1.32223 -16.566341,-3.46214 -1.185016,-0.47439 -2.219364,-0.86253 -2.29855,-0.86253 -0.274145,0 -2.095423,4.27292 -2.63264,6.17647 -0.498157,1.76515 -0.546917,3.66551 -0.635804,24.77942 l -0.09627,22.86765 h 4.570684 4.570685 z m 22.282008,-49.87952 c 6.520034,-1.12337 13.091684,-4.24507 17.470114,-8.29872 7.31616,-6.77347 9.40595,-16.33172 5.37714,-24.59389 -1.1322,-2.32187 -4.33289,-6.53607 -5.70764,-7.51498 -1.81329,-1.29117 -2.06104,-2.11967 -1.98783,-6.64753 0.0764,-4.7201 -0.26826,-6.25487 -2.03665,-9.07127 l -1.09329,-1.74119 -1.01212,1.15296 c -1.37548,1.56687 -2.10106,3.23889 -2.1088,4.85947 -0.007,1.47715 -0.76757,2.8818 -2.09075,3.86152 -1.24253,0.92001 -2.77676,0.9511 -5.709828,0.11575 -5.677757,-1.61708 -10.123828,-1.65181 -15.294117,-0.11949 -3.226729,0.95631 -4.717585,0.95945 -5.985776,0.0126 -1.188014,-0.88697 -1.800734,-1.89274 -2.286626,-3.75342 -0.2498,-0.95659 -0.708426,-2.23761 -1.019167,-2.84671 -0.761594,-1.49286 -2.314818,-3.22432 -2.686389,-2.99468 -0.557727,0.3447 -1.942829,3.79782 -2.290208,5.70959 -0.223313,1.22898 -0.26202,2.67302 -0.109962,4.10245 0.265195,2.49303 0.19747,3.70209 -0.255314,4.55796 -0.171404,0.32401 -1.491828,1.70261 -2.934275,3.06358 -5.580725,5.26548 -7.816037,10.33874 -7.508877,17.04212 0.116946,2.5522 0.313337,3.5877 1.063187,5.60579 4.765903,12.82657 21.319534,20.40779 38.207182,17.49809 z m -57.57613,22.8207 v -4.70589 h 4.70589 4.705878 v 4.70589 4.70588 h -4.705878 -4.70589 z"
       id="path1" /></g></svg>
